<!-- icon666.com - MILLIONS vector ICONS FREE --><svg id="Capa_1" enable-background="new 0 0 512 512" viewBox="0 0 512 512" xmlns="http://www.w3.org/2000/svg"><g><g><path d="m210.543-152.108h32.325v438.411h-32.325z" fill="#d0e2e7" transform="matrix(0 1 -1 0 293.802 -159.608)"/></g><g><path d="m443.89 477.223h-416.187c-11.158 0-20.203-9.045-20.203-20.203v-292.947c0-11.158 9.045-20.203 20.203-20.203h416.187c11.158 0 20.203 9.045 20.203 20.203v292.947c0 11.158-9.045 20.203-20.203 20.203z" fill="#c6865c"/></g><g><path d="m101.445 114.575h268.703v391.943h-268.703z" fill="#f9efaf" transform="matrix(0 1 -1 0 546.343 74.75)"/></g><g><path d="m415.606 67.097c0 5.616.834 11.038 2.365 16.163h27.94v-32.325h-27.94c-1.531 5.124-2.365 10.546-2.365 16.162z" fill="#b4d0d5"/></g><g><circle cx="472.175" cy="67.097" fill="#9bb9c1" r="32.325"/></g><g><path d="m489.083 39.546c3.026 4.92 4.774 10.709 4.774 16.909 0 17.853-14.473 32.325-32.325 32.325-6.199 0-11.989-1.748-16.909-4.774 5.688 9.248 15.898 15.417 27.551 15.417 17.853 0 32.325-14.473 32.325-32.325.001-11.654-6.168-21.864-15.416-27.552z" fill="#86a0af"/></g><g><g><g><g><path d="m265.091 208.52-21.213 40.407h-48.488c-27.895 0-50.508 22.613-50.508 50.508v16.163h181.829v-79.803z" fill="#c6865c"/></g></g></g><g><path d="m195.39 248.926c-27.895 0-50.508 22.613-50.508 50.508v16.163h64.65v-66.671z" fill="#b16e3d"/></g><g><path d="m144.882 315.597h181.829v32.325h-181.829z" fill="#365e7d"/></g></g><g><path d="m72.15 380.248h327.293v32.325h-327.293z" fill="#365e7d"/></g><g><path d="m39.83 401.278c-4.142 0-7.5 3.357-7.5 7.5v36.12c0 4.143 3.358 7.5 7.5 7.5h391.94c4.143 0 7.5-3.357 7.5-7.5v-268.7c0-4.143-3.357-7.5-7.5-7.5h-391.94c-4.142 0-7.5 3.357-7.5 7.5v197.58c0 4.143 3.358 7.5 7.5 7.5s7.5-3.357 7.5-7.5v-190.08h376.94v253.7h-376.94v-28.62c0-4.143-3.358-7.5-7.5-7.5z"/><path d="m472.175 27.272c-13.106 0-24.751 6.366-32.013 16.166h-42.587c-4.143 0-7.5 3.357-7.5 7.5s3.357 7.5 7.5 7.5h35.734c-.621 2.79-.959 5.685-.959 8.659 0 2.975.338 5.87.959 8.66h-418.309v-17.319h347.575c4.143 0 7.5-3.357 7.5-7.5s-3.357-7.5-7.5-7.5h-355.075c-4.142 0-7.5 3.357-7.5 7.5v32.319c0 4.143 3.358 7.5 7.5 7.5h51.089v45.61h-30.889c-15.274 0-27.7 12.431-27.7 27.71v292.939c0 15.28 12.426 27.711 27.7 27.711h416.19c15.274 0 27.7-12.431 27.7-27.711v-231.788c0-4.143-3.357-7.5-7.5-7.5s-7.5 3.357-7.5 7.5v231.789c0 7.009-5.697 12.711-12.7 12.711h-416.19c-7.003 0-12.7-5.702-12.7-12.711v-292.939c0-7.008 5.697-12.71 12.7-12.71h416.19c7.003 0 12.7 5.702 12.7 12.71v26.15c0 4.143 3.357 7.5 7.5 7.5s7.5-3.357 7.5-7.5v-26.15c0-15.279-12.426-27.71-27.7-27.71h-30.886v-45.61h27.159c7.262 9.799 18.906 16.165 32.012 16.165 21.96 0 39.825-17.865 39.825-39.825s-17.865-39.826-39.825-39.826zm-106.496 63.485v45.61h-259.764v-45.61zm-292.09 0h17.325v45.61h-17.325zm324.415 45.611h-17.325v-45.61h17.325zm74.171-44.446c-13.688 0-24.825-11.137-24.825-24.825s11.137-24.825 24.825-24.825 24.825 11.137 24.825 24.825-11.137 24.825-24.825 24.825z"/><path d="m326.711 355.422c4.143 0 7.5-3.357 7.5-7.5v-112.128c0-2.968-1.75-5.657-4.464-6.858l-61.62-27.274c-3.61-1.597-7.84-.124-9.676 3.372l-19.106 36.393h-43.955c-31.986 0-58.008 26.022-58.008 58.008v48.488c0 4.143 3.358 7.5 7.5 7.5h181.829zm-7.5-15h-166.829v-17.325h166.829zm-75.333-83.996c2.788 0 5.345-1.546 6.641-4.014l17.953-34.195 50.739 22.459v67.421h-102.178v-51.671zm-91.496 43.008c0-23.715 19.293-43.008 43.008-43.008h6.643v51.671h-49.65v-8.663z"/><path d="m64.65 380.248v32.325c0 4.143 3.358 7.5 7.5 7.5h327.293c4.143 0 7.5-3.357 7.5-7.5v-32.325c0-4.143-3.357-7.5-7.5-7.5h-327.293c-4.142 0-7.5 3.357-7.5 7.5zm15 7.5h312.293v17.325h-312.293z"/></g></g></svg>